<?xml version="1.0" encoding="UTF-8"?>
<svg width="124px" height="28px" viewBox="0 0 124 28" version="1.1" xmlns="http://www.w3.org/2000/svg" xmlns:xlink="http://www.w3.org/1999/xlink">
    <title>二级标题备份 2</title>
    <g id="页面-1" stroke="none" stroke-width="1" fill="none" fill-rule="evenodd">
        <g id="切图" transform="translate(-32.000000, -207.000000)">
            <g id="编组" transform="translate(32.000000, 207.000000)">
                <rect id="矩形" fill="#498AB9" opacity="0.300211589" x="3" y="2" width="25" height="25"></rect>
                <rect id="矩形" fill="#498AB9" x="3" y="27" width="112" height="1"></rect>
                <rect id="矩形备份-2" fill="#C2E0FF" x="119" y="27" width="5" height="1"></rect>
                <polygon id="路径" fill="#498AB9" opacity="0.495602562" points="119 3 119 2 124 2 124 7 123 7 123 3"></polygon>
                <path d="M-0.5,11 C-0.223857625,11 0,11.2238576 0,11.5 C0,11.7761424 -0.223857625,12 -0.5,12 C-0.776142375,12 -1,11.7761424 -1,11.5 C-1,11.2238576 -0.776142375,11 -0.5,11 Z M1.5,11 C1.77614237,11 2,11.2238576 2,11.5 C2,11.7761424 1.77614237,12 1.5,12 C1.22385763,12 1,11.7761424 1,11.5 C1,11.2238576 1.22385763,11 1.5,11 Z M3.5,11 C3.77614237,11 4,11.2238576 4,11.5 C4,11.7761424 3.77614237,12 3.5,12 C3.22385763,12 3,11.7761424 3,11.5 C3,11.2238576 3.22385763,11 3.5,11 Z M5.5,11 C5.77614237,11 6,11.2238576 6,11.5 C6,11.7761424 5.77614237,12 5.5,12 C5.22385763,12 5,11.7761424 5,11.5 C5,11.2238576 5.22385763,11 5.5,11 Z M7.5,11 C7.77614237,11 8,11.2238576 8,11.5 C8,11.7761424 7.77614237,12 7.5,12 C7.22385763,12 7,11.7761424 7,11.5 C7,11.2238576 7.22385763,11 7.5,11 Z M9.5,11 C9.77614237,11 10,11.2238576 10,11.5 C10,11.7761424 9.77614237,12 9.5,12 C9.22385763,12 9,11.7761424 9,11.5 C9,11.2238576 9.22385763,11 9.5,11 Z M11.5,11 C11.7761424,11 12,11.2238576 12,11.5 C12,11.7761424 11.7761424,12 11.5,12 C11.2238576,12 11,11.7761424 11,11.5 C11,11.2238576 11.2238576,11 11.5,11 Z M7.5,9 C7.77614237,9 8,9.22385763 8,9.5 C8,9.77614237 7.77614237,10 7.5,10 C7.22385763,10 7,9.77614237 7,9.5 C7,9.22385763 7.22385763,9 7.5,9 Z M9.5,9 C9.77614237,9 10,9.22385763 10,9.5 C10,9.77614237 9.77614237,10 9.5,10 C9.22385763,10 9,9.77614237 9,9.5 C9,9.22385763 9.22385763,9 9.5,9 Z M11.5,9 C11.7761424,9 12,9.22385763 12,9.5 C12,9.77614237 11.7761424,10 11.5,10 C11.2238576,10 11,9.77614237 11,9.5 C11,9.22385763 11.2238576,9 11.5,9 Z M-0.5,9 C-0.223857625,9 0,9.22385763 0,9.5 C0,9.77614237 -0.223857625,10 -0.5,10 C-0.776142375,10 -1,9.77614237 -1,9.5 C-1,9.22385763 -0.776142375,9 -0.5,9 Z M1.5,9 C1.77614237,9 2,9.22385763 2,9.5 C2,9.77614237 1.77614237,10 1.5,10 C1.22385763,10 1,9.77614237 1,9.5 C1,9.22385763 1.22385763,9 1.5,9 Z M3.5,9 C3.77614237,9 4,9.22385763 4,9.5 C4,9.77614237 3.77614237,10 3.5,10 C3.22385763,10 3,9.77614237 3,9.5 C3,9.22385763 3.22385763,9 3.5,9 Z M5.5,9 C5.77614237,9 6,9.22385763 6,9.5 C6,9.77614237 5.77614237,10 5.5,10 C5.22385763,10 5,9.77614237 5,9.5 C5,9.22385763 5.22385763,9 5.5,9 Z M-0.5,7 C-0.223857625,7 0,7.22385763 0,7.5 C0,7.77614237 -0.223857625,8 -0.5,8 C-0.776142375,8 -1,7.77614237 -1,7.5 C-1,7.22385763 -0.776142375,7 -0.5,7 Z M1.5,7 C1.77614237,7 2,7.22385763 2,7.5 C2,7.77614237 1.77614237,8 1.5,8 C1.22385763,8 1,7.77614237 1,7.5 C1,7.22385763 1.22385763,7 1.5,7 Z M3.5,7 C3.77614237,7 4,7.22385763 4,7.5 C4,7.77614237 3.77614237,8 3.5,8 C3.22385763,8 3,7.77614237 3,7.5 C3,7.22385763 3.22385763,7 3.5,7 Z M5.5,7 C5.77614237,7 6,7.22385763 6,7.5 C6,7.77614237 5.77614237,8 5.5,8 C5.22385763,8 5,7.77614237 5,7.5 C5,7.22385763 5.22385763,7 5.5,7 Z M7.5,7 C7.77614237,7 8,7.22385763 8,7.5 C8,7.77614237 7.77614237,8 7.5,8 C7.22385763,8 7,7.77614237 7,7.5 C7,7.22385763 7.22385763,7 7.5,7 Z M9.5,7 C9.77614237,7 10,7.22385763 10,7.5 C10,7.77614237 9.77614237,8 9.5,8 C9.22385763,8 9,7.77614237 9,7.5 C9,7.22385763 9.22385763,7 9.5,7 Z M11.5,7 C11.7761424,7 12,7.22385763 12,7.5 C12,7.77614237 11.7761424,8 11.5,8 C11.2238576,8 11,7.77614237 11,7.5 C11,7.22385763 11.2238576,7 11.5,7 Z M-0.5,5 C-0.223857625,5 0,5.22385763 0,5.5 C0,5.77614237 -0.223857625,6 -0.5,6 C-0.776142375,6 -1,5.77614237 -1,5.5 C-1,5.22385763 -0.776142375,5 -0.5,5 Z M1.5,5 C1.77614237,5 2,5.22385763 2,5.5 C2,5.77614237 1.77614237,6 1.5,6 C1.22385763,6 1,5.77614237 1,5.5 C1,5.22385763 1.22385763,5 1.5,5 Z M11.5,5 C11.7761424,5 12,5.22385763 12,5.5 C12,5.77614237 11.7761424,6 11.5,6 C11.2238576,6 11,5.77614237 11,5.5 C11,5.22385763 11.2238576,5 11.5,5 Z M5.5,5 C5.77614237,5 6,5.22385763 6,5.5 C6,5.77614237 5.77614237,6 5.5,6 C5.22385763,6 5,5.77614237 5,5.5 C5,5.22385763 5.22385763,5 5.5,5 Z M7.5,5 C7.77614237,5 8,5.22385763 8,5.5 C8,5.77614237 7.77614237,6 7.5,6 C7.22385763,6 7,5.77614237 7,5.5 C7,5.22385763 7.22385763,5 7.5,5 Z M3.5,5 C3.77614237,5 4,5.22385763 4,5.5 C4,5.77614237 3.77614237,6 3.5,6 C3.22385763,6 3,5.77614237 3,5.5 C3,5.22385763 3.22385763,5 3.5,5 Z M9.5,5 C9.77614237,5 10,5.22385763 10,5.5 C10,5.77614237 9.77614237,6 9.5,6 C9.22385763,6 9,5.77614237 9,5.5 C9,5.22385763 9.22385763,5 9.5,5 Z M-0.5,3 C-0.223857625,3 0,3.22385763 0,3.5 C0,3.77614237 -0.223857625,4 -0.5,4 C-0.776142375,4 -1,3.77614237 -1,3.5 C-1,3.22385763 -0.776142375,3 -0.5,3 Z M1.5,3 C1.77614237,3 2,3.22385763 2,3.5 C2,3.77614237 1.77614237,4 1.5,4 C1.22385763,4 1,3.77614237 1,3.5 C1,3.22385763 1.22385763,3 1.5,3 Z M3.5,3 C3.77614237,3 4,3.22385763 4,3.5 C4,3.77614237 3.77614237,4 3.5,4 C3.22385763,4 3,3.77614237 3,3.5 C3,3.22385763 3.22385763,3 3.5,3 Z M5.5,3 C5.77614237,3 6,3.22385763 6,3.5 C6,3.77614237 5.77614237,4 5.5,4 C5.22385763,4 5,3.77614237 5,3.5 C5,3.22385763 5.22385763,3 5.5,3 Z M7.5,3 C7.77614237,3 8,3.22385763 8,3.5 C8,3.77614237 7.77614237,4 7.5,4 C7.22385763,4 7,3.77614237 7,3.5 C7,3.22385763 7.22385763,3 7.5,3 Z M9.5,3 C9.77614237,3 10,3.22385763 10,3.5 C10,3.77614237 9.77614237,4 9.5,4 C9.22385763,4 9,3.77614237 9,3.5 C9,3.22385763 9.22385763,3 9.5,3 Z M11.5,3 C11.7761424,3 12,3.22385763 12,3.5 C12,3.77614237 11.7761424,4 11.5,4 C11.2238576,4 11,3.77614237 11,3.5 C11,3.22385763 11.2238576,3 11.5,3 Z M-0.5,1 C-0.223857625,1 0,1.22385763 0,1.5 C0,1.77614237 -0.223857625,2 -0.5,2 C-0.776142375,2 -1,1.77614237 -1,1.5 C-1,1.22385763 -0.776142375,1 -0.5,1 Z M1.5,1 C1.77614237,1 2,1.22385763 2,1.5 C2,1.77614237 1.77614237,2 1.5,2 C1.22385763,2 1,1.77614237 1,1.5 C1,1.22385763 1.22385763,1 1.5,1 Z M3.5,1 C3.77614237,1 4,1.22385763 4,1.5 C4,1.77614237 3.77614237,2 3.5,2 C3.22385763,2 3,1.77614237 3,1.5 C3,1.22385763 3.22385763,1 3.5,1 Z M5.5,1 C5.77614237,1 6,1.22385763 6,1.5 C6,1.77614237 5.77614237,2 5.5,2 C5.22385763,2 5,1.77614237 5,1.5 C5,1.22385763 5.22385763,1 5.5,1 Z M7.5,1 C7.77614237,1 8,1.22385763 8,1.5 C8,1.77614237 7.77614237,2 7.5,2 C7.22385763,2 7,1.77614237 7,1.5 C7,1.22385763 7.22385763,1 7.5,1 Z M9.5,1 C9.77614237,1 10,1.22385763 10,1.5 C10,1.77614237 9.77614237,2 9.5,2 C9.22385763,2 9,1.77614237 9,1.5 C9,1.22385763 9.22385763,1 9.5,1 Z M11.5,1 C11.7761424,1 12,1.22385763 12,1.5 C12,1.77614237 11.7761424,2 11.5,2 C11.2238576,2 11,1.77614237 11,1.5 C11,1.22385763 11.2238576,1 11.5,1 Z" id="形状" fill="#C2E0FF" opacity="0.701891945" transform="translate(5.500000, 6.500000) rotate(-270.000000) translate(-5.500000, -6.500000) "></path>
            </g>
        </g>
    </g>
</svg>